#N canvas 1429 590 450 345 12;
#X obj 18 138 bng 15 250 50 0 empty empty empty 17 7 0 10 #fcfcfc #000000
#000000;
#X obj 18 11 netreceive -u -b 8000;
#X obj 18 37 oscparse;
#X obj 18 67 list trim;
#X obj 18 98 route mhc_pulse mhc_note;
#X obj 39 136 print pulse;
#X obj 166 137 print note;
#X floatatom 124 137 5 0 0 0 - - - 0;
#X connect 1 0 2 0;
#X connect 2 0 3 0;
#X connect 3 0 4 0;
#X connect 4 0 5 0;
#X connect 4 0 0 0;
#X connect 4 1 6 0;
#X connect 4 1 7 0;
