#N canvas 496 231 491 376 12;
#X obj 66 259 netsend -u -b;
#X msg 219 227 connect localhost 8000;
#X obj 15 53 metro 1000;
#X obj 12 32 tgl 15 0 empty empty empty 17 7 0 10 -262144 -1 -1 1 1
;
#X msg 46 146 set mhc_pulse;
#X obj 64 200 oscformat mhc_pulse;
#X msg 190 170 set mhc_note;
#X obj 110 85 hsl 128 15 0 127 0 0 empty empty empty -2 -8 0 10 -262144
-1 -1 7800 1;
#X obj 158 113 + 36;
#X obj 219 201 loadbang;
#X obj 158 144 t f b;
#X obj 14 120 t f b;
#X msg 14 83 1;
#X text 325 82 Replace 'localhost' with IP or hostname of machine to
be contacted. Its possible to 'broadcast' with OSC (i.e. speak to lots
of machines) so maybe we can implement this..., f 22;
#X connect 1 0 0 0;
#X connect 2 0 12 0;
#X connect 3 0 2 0;
#X connect 4 0 5 0;
#X connect 5 0 0 0;
#X connect 6 0 5 0;
#X connect 7 0 8 0;
#X connect 8 0 10 0;
#X connect 9 0 1 0;
#X connect 10 0 5 0;
#X connect 10 1 6 0;
#X connect 11 0 5 0;
#X connect 11 1 4 0;
#X connect 12 0 11 0;
