#N canvas -12 0 1318 838 12;
#X obj 66 259 netsend -u -b;
#X obj 17 54 metro 1000;
#X obj 12 32 tgl 15 0 empty empty empty 17 7 0 10 -262144 -1 -1 0 1
;
#X msg 46 146 set mhc_pulse;
#X obj 64 200 oscformat mhc_pulse;
#X msg 190 170 set mhc_note;
#X obj 126 85 hsl 128 15 0 127 0 0 empty empty empty -2 -8 0 10 -262144
-1 -1 0 1;
#X obj 158 113 + 36;
#X obj 219 201 loadbang;
#X obj 158 144 t f b;
#X obj 14 120 t f b;
#X msg 14 83 1;
#X obj 831 222 vsl 15 128 0 1 0 0 empty empty empty 0 -9 0 10 -262144
-1 -1 6350 1;
#X obj 806 370 *~ 0;
#X obj 806 414 dac~;
#X msg 806 499 \; pd dsp 1;
#X obj 806 446 loadbang;
#X obj 806 471 del 2000;
#X obj 688 431 vu 15 160 empty empty -1 -8 0 12 -66577 -1 1 0;
#N canvas 329 161 625 417 vu 0;
#X obj 59 129 env~ 1024;
#X obj 161 111 abs~;
#X obj 161 213 snapshot~;
#X obj 161 256 rmstodb;
#X obj 161 21 inlet~;
#X obj 161 288 - 100;
#X obj 59 287 - 100;
#X obj 59 361 outlet;
#X obj 161 361 outlet;
#X text 344 307 Check the help file of env~ and slop~ for more details.
, f 31;
#X obj 239 89 expr 1000 / $f1;
#X floatatom 239 117 5 0 0 0 - - -;
#X obj 161 146 slop~ 0 0 0 0 1e+009;
#X obj 239 18 inlet;
#X floatatom 239 57 5 0 0 0 - - -;
#X text 359 89 convert to hz;
#X text 282 118 hz;
#X text 284 57 peak decay time in ms;
#X obj 59 171 t f b;
#X text 345 132 The env~ object is dedicated to RMS analysis. Its output
is in dB (0-100 range \, pd style) but needs to be converted to dBFS
(and we do that by simply subtracting 100)., f 31;
#X text 345 225 The slop~ object is used here for peak detection. We
need to convert the output to dB with rmstodb and also subtract by
100 to convert it to dBFS., f 31;
#X connect 0 0 18 0;
#X connect 1 0 12 0;
#X connect 2 0 3 0;
#X connect 3 0 5 0;
#X connect 4 0 0 0;
#X connect 4 0 1 0;
#X connect 5 0 8 0;
#X connect 6 0 7 0;
#X connect 10 0 11 0;
#X connect 11 0 12 3;
#X connect 12 0 2 0;
#X connect 13 0 14 0;
#X connect 14 0 10 0;
#X connect 18 0 6 0;
#X connect 18 1 2 0;
#X restore 665 388 pd vu;
#X obj 682 279 line~;
#X obj 600 309 *~;
#X msg 730 250 0 \$1;
#X obj 730 222 delay 100;
#X msg 683 248 1 0;
#X obj 831 165 loadbang;
#X msg 831 192 0.5;
#X obj 683 196 r theBang;
#X obj 102 54 s theBang;
#X text 310 75 Replace 'localhost' with IP or hostname of machine to
be contacted (probably IP works best!). Its possible to 'broadcast'
with OSC (i.e. speak to lots of machines) so maybe we can implement
this..., f 22;
#X msg 219 227 connect localhost 8000;
#X obj 601 247 osc~ 440;
#X connect 1 0 11 0;
#X connect 1 0 28 0;
#X connect 2 0 1 0;
#X connect 3 0 4 0;
#X connect 4 0 0 0;
#X connect 5 0 4 0;
#X connect 6 0 7 0;
#X connect 7 0 9 0;
#X connect 8 0 30 0;
#X connect 9 0 4 0;
#X connect 9 1 5 0;
#X connect 10 0 4 0;
#X connect 10 1 3 0;
#X connect 11 0 10 0;
#X connect 12 0 13 1;
#X connect 13 0 14 0;
#X connect 13 0 14 1;
#X connect 13 0 19 0;
#X connect 16 0 17 0;
#X connect 17 0 15 0;
#X connect 19 0 18 0;
#X connect 19 1 18 1;
#X connect 20 0 21 1;
#X connect 21 0 13 0;
#X connect 22 0 20 0;
#X connect 23 0 22 0;
#X connect 24 0 20 0;
#X connect 25 0 26 0;
#X connect 26 0 12 0;
#X connect 27 0 24 0;
#X connect 27 0 23 0;
#X connect 30 0 0 0;
#X connect 31 0 21 0;
