#N canvas 791 38 934 969 12;
#X obj 52 203 makenote 100 100;
#X obj 53 134 random 20;
#X obj 53 56 bng 50 250 50 0 empty empty empty 17 7 0 10 #fcfcfc #000000
#000000;
#X obj 52 164 + 50;
#X obj 133 133 random 20;
#X obj 132 163 + 50;
#X obj 220 162 + 50;
#X obj 221 132 random 200;
#X text 115 73 RANDOM NOTE;
#X obj 258 698 makenote 100 100;
#X obj 257 738 noteout 3;
#X obj 51 243 noteout 3;
#X obj 270 314 tgl 50 0 empty empty empty 17 7 0 10 #fcfcfc #000000
#000000 0 1;
#X obj 270 411 bng 50 250 50 0 empty empty empty 17 7 0 10 #fcfcfc
#000000 #000000;
#X floatatom 274 518 5 0 0 0 - - - 0;
#X obj 273 487 int;
#X obj 274 547 mod 5;
#X obj 268 639 + 50;
#X floatatom 270 575 5 0 0 0 - - - 0;
#X obj 268 603 * 2;
#X obj 271 376 metro 250;
#X obj 309 487 + 3;
#X connect 0 0 11 0;
#X connect 0 1 11 1;
#X connect 1 0 3 0;
#X connect 2 0 1 0;
#X connect 2 0 4 0;
#X connect 2 0 7 0;
#X connect 3 0 0 0;
#X connect 4 0 5 0;
#X connect 5 0 0 1;
#X connect 6 0 0 2;
#X connect 7 0 6 0;
#X connect 9 0 10 0;
#X connect 9 1 10 1;
#X connect 12 0 20 0;
#X connect 13 0 15 0;
#X connect 14 0 16 0;
#X connect 15 0 14 0;
#X connect 15 0 21 0;
#X connect 16 0 18 0;
#X connect 17 0 9 0;
#X connect 18 0 19 0;
#X connect 19 0 17 0;
#X connect 20 0 13 0;
#X connect 21 0 15 1;
