#N canvas 906 38 684 780 12;
#X floatatom 334 286 5 0 0 0 - - - 0;
#X obj 332 229 int;
#X obj 370 229 +;
#X obj 333 131 bng 40 250 50 0 empty empty empty 17 7 0 10 #fcfcfc
#000000 #000000;
#X msg 389 189 1;
#X obj 333 32 tgl 40 0 empty empty empty 17 7 0 10 #fcfcfc #000000
#000000 0 1;
#X obj 244 337 tgl 15 0 empty empty empty 17 7 0 10 #fcfcfc #000000
#000000 0 1;
#X obj 245 360 sel 1;
#X obj 244 392 bng 15 250 50 0 empty empty empty 17 7 0 10 #fcfcfc
#000000 #000000;
#X msg 350 196 0;
#X floatatom 293 499 5 0 0 0 - - - 0;
#X obj 233 566 +;
#X floatatom 235 605 5 0 0 0 - - - 0;
#X msg 225 528 0;
#X floatatom 235 670 5 0 0 0 - - - 0;
#X obj 242 740 dac~ 1 2 3 4 5 6 7 8;
#X obj 159 362 tgl 15 0 empty empty empty 17 7 0 10 #fcfcfc #000000
#000000 0 1;
#X obj 235 639 / 120;
#X obj 333 90 metro 100;
#X obj 127 312 del 5;
#X obj 291 669 osc~ 0.2;
#X obj 301 692 osc~ 0.15;
#X obj 370 666 osc~ 0.1;
#X obj 380 689 osc~ 0.125;
#X obj 449 550 + 50;
#X obj 336 377 route 0 1 2 3 4 5 6 7;
#X obj 243 308 >= 7;
#X msg 439 425 7;
#X msg 519 425 12;
#X msg 554 422 14;
#X msg 590 422 15, f 6;
#X floatatom 444 590 5 0 0 0 - - - 0;
#X msg 335 428 15, f 2;
#X msg 365 428 14;
#X msg 401 427 3;
#X msg 477 425 5;
#X obj 529 257 random 8;
#X obj 460 516 * 100;
#X connect 0 0 26 0;
#X connect 1 0 2 0;
#X connect 1 0 0 0;
#X connect 2 0 1 1;
#X connect 3 0 1 0;
#X connect 3 0 4 0;
#X connect 3 0 16 0;
#X connect 3 0 19 0;
#X connect 3 0 36 0;
#X connect 4 0 2 1;
#X connect 5 0 18 0;
#X connect 6 0 7 0;
#X connect 7 0 8 0;
#X connect 8 0 9 0;
#X connect 9 0 1 1;
#X connect 10 0 13 0;
#X connect 10 0 11 1;
#X connect 11 0 12 0;
#X connect 12 0 17 0;
#X connect 13 0 11 0;
#X connect 14 0 15 0;
#X connect 16 0 15 1;
#X connect 17 0 14 0;
#X connect 18 0 3 0;
#X connect 19 0 16 0;
#X connect 20 0 15 2;
#X connect 21 0 15 3;
#X connect 22 0 15 4;
#X connect 23 0 15 5;
#X connect 24 0 18 1;
#X connect 24 0 31 0;
#X connect 25 0 32 0;
#X connect 25 1 33 0;
#X connect 25 2 34 0;
#X connect 25 3 27 0;
#X connect 25 4 35 0;
#X connect 25 5 28 0;
#X connect 25 7 29 0;
#X connect 25 8 30 0;
#X connect 26 0 6 0;
#X connect 27 0 10 0;
#X connect 27 0 37 0;
#X connect 28 0 10 0;
#X connect 28 0 37 0;
#X connect 29 0 10 0;
#X connect 29 0 37 0;
#X connect 30 0 10 0;
#X connect 30 0 37 0;
#X connect 32 0 10 0;
#X connect 32 0 37 0;
#X connect 33 0 10 0;
#X connect 33 0 37 0;
#X connect 34 0 10 0;
#X connect 34 0 37 0;
#X connect 35 0 10 0;
#X connect 35 0 37 0;
#X connect 36 0 25 0;
#X connect 37 0 24 0;
