#N canvas 401 38 1327 823 12;
#X obj 226 699 makenote 100 100;
#X obj 224 735 noteout 3;
#X floatatom 95 484 5 0 0 0 - - - 0;
#X floatatom 139 484 5 0 0 0 - - - 0;
#X floatatom 182 485 5 0 0 0 - - - 0;
#X floatatom 225 486 5 0 0 0 - - - 0;
#X floatatom 269 486 5 0 0 0 - - - 0;
#X floatatom 314 486 5 0 0 0 - - - 0;
#X floatatom 357 487 5 0 0 0 - - - 0;
#X floatatom 401 487 5 0 0 0 - - - 0;
#X obj 95 526 s out;
#X obj 139 526 s out;
#X obj 183 526 s out;
#X obj 228 527 s out;
#X obj 273 526 s out;
#X obj 320 526 s out;
#X obj 370 527 s out;
#X obj 417 528 s out;
#X obj 248 575 r out;
#X floatatom 247 601 5 0 0 0 - - - 0;
#X obj 224 602 bng 15 250 50 0 empty empty empty 17 7 0 10 #fcfcfc
#000000 #000000;
#X obj 94 444 r s1;
#X obj 140 445 r s2;
#X obj 182 444 r s3;
#X obj 223 445 r s4;
#X obj 264 445 r s5;
#X obj 310 446 r s6;
#X obj 353 445 r s7;
#X obj 399 445 r s8;
#X obj 101 400 s s1;
#X obj 137 400 s s2;
#X obj 173 400 s s3;
#X obj 210 401 s s4;
#X obj 248 401 s s5;
#X obj 284 401 s s6;
#X obj 321 401 s s7;
#X obj 358 401 s s8;
#X obj 190 197 + 1;
#X obj 103 106 bng 15 250 50 0 empty empty empty 17 7 0 10 #fcfcfc
#000000 #000000;
#X obj 106 196 int;
#X floatatom 108 322 5 0 0 0 - - - 0;
#X obj 167 262 sel 1;
#X obj 170 292 bng 15 250 50 0 empty empty empty 17 7 0 10 #fcfcfc
#000000 #000000;
#X msg 147 151 1;
#X obj 104 357 route 1 2 3 4 5 6 7 8;
#X obj 99 20 tgl 15 0 empty empty empty 17 7 0 10 #fcfcfc #000000 #000000
0 1;
#X obj 592 746 makenote 100 100;
#X obj 590 782 noteout 4;
#X obj 227 667 + 36;
#X floatatom 200 148 5 0 0 0 - - - 0;
#X obj 104 466 bng 15 250 50 0 empty empty empty 17 7 0 10 #fcfcfc
#000000 #000000;
#X obj 149 466 bng 15 250 50 0 empty empty empty 17 7 0 10 #fcfcfc
#000000 #000000;
#X obj 192 466 bng 15 250 50 0 empty empty empty 17 7 0 10 #fcfcfc
#000000 #000000;
#X obj 233 466 bng 15 250 50 0 empty empty empty 17 7 0 10 #fcfcfc
#000000 #000000;
#X obj 276 467 bng 15 250 50 0 empty empty empty 17 7 0 10 #fcfcfc
#000000 #000000;
#X obj 322 467 bng 15 250 50 0 empty empty empty 17 7 0 10 #fcfcfc
#000000 #000000;
#X obj 364 468 bng 15 250 50 0 empty empty empty 17 7 0 10 #fcfcfc
#000000 #000000;
#X obj 410 467 bng 15 250 50 0 empty empty empty 17 7 0 10 #fcfcfc
#000000 #000000;
#X obj 122 264 sel 1;
#X obj 121 291 bng 15 250 50 0 empty empty empty 17 7 0 10 #fcfcfc
#000000 #000000;
#X msg 110 151 8;
#X msg 238 105 1;
#X floatatom 630 537 5 0 0 0 - - - 0;
#X floatatom 674 537 5 0 0 0 - - - 0;
#X floatatom 717 538 5 0 0 0 - - - 0;
#X floatatom 760 539 5 0 0 0 - - - 0;
#X floatatom 804 539 5 0 0 0 - - - 0;
#X floatatom 849 539 5 0 0 0 - - - 0;
#X floatatom 893 540 5 0 0 0 - - - 0;
#X floatatom 936 540 5 0 0 0 - - - 0;
#X obj 725 250 + 1;
#X obj 638 159 bng 15 250 50 0 empty empty empty 17 7 0 10 #fcfcfc
#000000 #000000;
#X obj 641 249 int;
#X floatatom 643 375 5 0 0 0 - - - 0;
#X obj 702 315 sel 1;
#X obj 705 345 bng 15 250 50 0 empty empty empty 17 7 0 10 #fcfcfc
#000000 #000000;
#X msg 682 204 1;
#X obj 639 410 route 1 2 3 4 5 6 7 8;
#X floatatom 735 201 5 0 0 0 - - - 0;
#X obj 639 519 bng 15 250 50 0 empty empty empty 17 7 0 10 #fcfcfc
#000000 #000000;
#X obj 684 519 bng 15 250 50 0 empty empty empty 17 7 0 10 #fcfcfc
#000000 #000000;
#X obj 727 519 bng 15 250 50 0 empty empty empty 17 7 0 10 #fcfcfc
#000000 #000000;
#X obj 768 519 bng 15 250 50 0 empty empty empty 17 7 0 10 #fcfcfc
#000000 #000000;
#X obj 811 520 bng 15 250 50 0 empty empty empty 17 7 0 10 #fcfcfc
#000000 #000000;
#X obj 857 520 bng 15 250 50 0 empty empty empty 17 7 0 10 #fcfcfc
#000000 #000000;
#X obj 899 521 bng 15 250 50 0 empty empty empty 17 7 0 10 #fcfcfc
#000000 #000000;
#X obj 945 520 bng 15 250 50 0 empty empty empty 17 7 0 10 #fcfcfc
#000000 #000000;
#X obj 657 317 sel 1;
#X obj 656 344 bng 15 250 50 0 empty empty empty 17 7 0 10 #fcfcfc
#000000 #000000;
#X msg 645 204 8;
#X msg 770 162 1;
#X obj 636 453 s t1;
#X obj 672 453 s t2;
#X obj 708 453 s t3;
#X obj 745 454 s t4;
#X obj 783 454 s t5;
#X obj 819 454 s t6;
#X obj 856 454 s t7;
#X obj 893 454 s t8;
#X obj 629 497 r t1;
#X obj 675 498 r t2;
#X obj 717 497 r t3;
#X obj 758 498 r t4;
#X obj 799 498 r t5;
#X obj 845 499 r t6;
#X obj 888 498 r t7;
#X obj 934 498 r t8;
#X floatatom 591 669 5 0 0 0 - - - 0;
#X obj 568 670 bng 15 250 50 0 empty empty empty 17 7 0 10 #fcfcfc
#000000 #000000;
#X obj 630 579 s out2;
#X obj 674 579 s out2;
#X obj 718 579 s out2;
#X obj 763 580 s out2;
#X obj 808 579 s out2;
#X obj 855 579 s out2;
#X obj 905 580 s out2;
#X obj 952 581 s out2;
#X obj 592 643 r out2;
#X obj 701 287 > 13;
#X obj 166 234 > 9;
#X msg 734 162 -1;
#X msg 205 106 -1;
#X obj 657 289 < -3;
#X obj 122 236 < -2;
#X obj 100 46 metro 150;
#X msg 271 104 2;
#X msg 171 108 -2;
#X msg 804 161 2;
#X msg 701 162 -2;
#X msg 837 202 8;
#X msg 871 201 9;
#X msg 903 200 10;
#X msg 254 187 8;
#X msg 288 186 9;
#X msg 320 185 10;
#X msg 357 186 11;
#X msg 391 185 12;
#X msg 423 184 13;
#X msg 943 201 11;
#X msg 977 200 12;
#X msg 1009 199 13;
#X obj 517 87 del 0;
#X msg 534 33 125;
#X msg 574 30 0;
#X obj 591 717 + 36;
#X obj 712 23 metro 1000;
#X obj 711 52 random 4;
#X floatatom 732 76 5 0 0 0 - - - 0;
#X obj 711 97 route 0 1 2 3;
#X obj 708 123 bng 15 250 50 0 empty empty empty 17 7 0 10 #fcfcfc
#000000 #000000;
#X obj 730 125 bng 15 250 50 0 empty empty empty 17 7 0 10 #fcfcfc
#000000 #000000;
#X obj 752 126 bng 15 250 50 0 empty empty empty 17 7 0 10 #fcfcfc
#000000 #000000;
#X obj 775 125 bng 15 250 50 0 empty empty empty 17 7 0 10 #fcfcfc
#000000 #000000;
#X connect 0 0 1 0;
#X connect 0 1 1 1;
#X connect 2 0 10 0;
#X connect 3 0 11 0;
#X connect 4 0 12 0;
#X connect 5 0 13 0;
#X connect 6 0 14 0;
#X connect 7 0 15 0;
#X connect 8 0 16 0;
#X connect 9 0 17 0;
#X connect 18 0 19 0;
#X connect 18 0 20 0;
#X connect 19 0 48 0;
#X connect 21 0 2 0;
#X connect 21 0 50 0;
#X connect 22 0 3 0;
#X connect 22 0 51 0;
#X connect 23 0 4 0;
#X connect 23 0 52 0;
#X connect 24 0 5 0;
#X connect 24 0 53 0;
#X connect 25 0 6 0;
#X connect 25 0 54 0;
#X connect 26 0 7 0;
#X connect 26 0 55 0;
#X connect 27 0 8 0;
#X connect 27 0 56 0;
#X connect 28 0 9 0;
#X connect 28 0 57 0;
#X connect 37 0 39 1;
#X connect 38 0 39 0;
#X connect 39 0 37 0;
#X connect 39 0 40 0;
#X connect 39 0 119 0;
#X connect 39 0 123 0;
#X connect 40 0 44 0;
#X connect 41 0 42 0;
#X connect 42 0 43 0;
#X connect 43 0 39 0;
#X connect 44 0 29 0;
#X connect 44 1 30 0;
#X connect 44 2 31 0;
#X connect 44 3 32 0;
#X connect 44 4 33 0;
#X connect 44 5 34 0;
#X connect 44 6 35 0;
#X connect 44 7 36 0;
#X connect 45 0 124 0;
#X connect 45 0 145 0;
#X connect 46 0 47 0;
#X connect 46 1 47 1;
#X connect 48 0 0 0;
#X connect 49 0 37 1;
#X connect 58 0 59 0;
#X connect 59 0 60 0;
#X connect 60 0 39 0;
#X connect 61 0 49 0;
#X connect 62 0 109 0;
#X connect 63 0 110 0;
#X connect 64 0 111 0;
#X connect 65 0 112 0;
#X connect 66 0 113 0;
#X connect 67 0 114 0;
#X connect 68 0 115 0;
#X connect 69 0 116 0;
#X connect 70 0 72 1;
#X connect 71 0 72 0;
#X connect 72 0 70 0;
#X connect 72 0 73 0;
#X connect 72 0 118 0;
#X connect 72 0 122 0;
#X connect 73 0 77 0;
#X connect 74 0 75 0;
#X connect 75 0 76 0;
#X connect 76 0 72 0;
#X connect 77 0 91 0;
#X connect 77 1 92 0;
#X connect 77 2 93 0;
#X connect 77 3 94 0;
#X connect 77 4 95 0;
#X connect 77 5 96 0;
#X connect 77 6 97 0;
#X connect 77 7 98 0;
#X connect 78 0 70 1;
#X connect 87 0 88 0;
#X connect 88 0 89 0;
#X connect 89 0 72 0;
#X connect 90 0 78 0;
#X connect 99 0 62 0;
#X connect 99 0 79 0;
#X connect 100 0 63 0;
#X connect 100 0 80 0;
#X connect 101 0 64 0;
#X connect 101 0 81 0;
#X connect 102 0 65 0;
#X connect 102 0 82 0;
#X connect 103 0 66 0;
#X connect 103 0 83 0;
#X connect 104 0 67 0;
#X connect 104 0 84 0;
#X connect 105 0 68 0;
#X connect 105 0 85 0;
#X connect 106 0 69 0;
#X connect 106 0 86 0;
#X connect 107 0 144 0;
#X connect 117 0 107 0;
#X connect 117 0 108 0;
#X connect 118 0 74 0;
#X connect 119 0 41 0;
#X connect 120 0 78 0;
#X connect 121 0 49 0;
#X connect 122 0 87 0;
#X connect 123 0 58 0;
#X connect 124 0 38 0;
#X connect 124 0 141 0;
#X connect 125 0 49 0;
#X connect 126 0 49 0;
#X connect 127 0 78 0;
#X connect 128 0 78 0;
#X connect 129 0 118 1;
#X connect 130 0 118 1;
#X connect 131 0 118 1;
#X connect 132 0 119 1;
#X connect 133 0 119 1;
#X connect 134 0 119 1;
#X connect 135 0 119 1;
#X connect 136 0 119 1;
#X connect 137 0 119 1;
#X connect 138 0 118 1;
#X connect 139 0 118 1;
#X connect 140 0 118 1;
#X connect 141 0 71 0;
#X connect 142 0 141 1;
#X connect 143 0 141 1;
#X connect 144 0 46 0;
#X connect 145 0 146 0;
#X connect 146 0 147 0;
#X connect 146 0 148 0;
#X connect 148 0 149 0;
#X connect 148 1 150 0;
#X connect 148 1 61 0;
#X connect 148 2 151 0;
#X connect 148 2 135 0;
#X connect 148 3 152 0;
#X connect 148 3 121 0;
#X connect 149 0 128 0;
#X connect 150 0 120 0;
#X connect 150 0 130 0;
#X connect 151 0 90 0;
#X connect 151 0 129 0;
#X connect 152 0 127 0;
#X connect 152 0 138 0;
