#N canvas 502 38 484 844 12;
#X obj 85 695 makenote 100 100;
#X floatatom 84 657 5 0 0 0 - - - 0;
#X obj 85 735 noteout 3;
#X obj 245 695 makenote 100 100;
#X floatatom 245 665 5 0 0 0 - - - 0;
#X obj 245 735 noteout 4;
#X obj 145 45 tgl 51 0 empty empty empty 17 7 0 10 #fcfcfc #000000
#000000 0 1;
#X obj 145 165 random 100;
#X floatatom 145 205 5 0 0 0 - - - 0;
#X obj 125 275 tgl 15 0 empty empty empty 17 7 0 10 #fcfcfc #000000
#000000 0 1;
#X obj 175 275 tgl 15 0 empty empty empty 17 7 0 10 #fcfcfc #000000
#000000 0 1;
#X obj 105 305 sel 1;
#X obj 105 345 bng 40 250 50 0 empty empty empty 17 7 0 10 #fcfcfc
#000000 #000000;
#X obj 175 305 sel 1;
#X obj 175 345 bng 36 250 50 0 empty empty empty 17 7 0 10 #fcfcfc
#000000 #000000;
#X obj 105 415 random 6;
#X obj 105 455 sel 0 1 2 3 4 5;
#X msg 105 495 57;
#X msg 135 495 60;
#X msg 165 495 62;
#X msg 195 495 64;
#X msg 225 495 67;
#X msg 255 495 69;
#X floatatom 105 575 5 0 0 0 - - - 0;
#X obj 125 245 < 40;
#X obj 175 245 > 60;
#X obj 145 125 metro 200;
#X obj 290 404 random 6;
#X obj 290 444 sel 0 1 2 3 4 5;
#X msg 290 484 57;
#X msg 320 484 60;
#X msg 350 484 62;
#X msg 380 484 64;
#X msg 410 484 67;
#X msg 440 484 69;
#X floatatom 290 564 5 0 0 0 - - - 0;
#X connect 0 0 2 0;
#X connect 0 1 2 1;
#X connect 1 0 0 0;
#X connect 3 0 5 0;
#X connect 3 1 5 1;
#X connect 4 0 3 0;
#X connect 6 0 26 0;
#X connect 7 0 8 0;
#X connect 8 0 24 0;
#X connect 8 0 25 0;
#X connect 9 0 11 0;
#X connect 10 0 13 0;
#X connect 11 0 12 0;
#X connect 12 0 15 0;
#X connect 13 0 14 0;
#X connect 14 0 27 0;
#X connect 15 0 16 0;
#X connect 16 0 17 0;
#X connect 16 1 18 0;
#X connect 16 2 19 0;
#X connect 16 3 20 0;
#X connect 16 4 21 0;
#X connect 16 5 22 0;
#X connect 17 0 23 0;
#X connect 18 0 23 0;
#X connect 19 0 23 0;
#X connect 20 0 23 0;
#X connect 21 0 23 0;
#X connect 22 0 23 0;
#X connect 23 0 1 0;
#X connect 24 0 9 0;
#X connect 25 0 10 0;
#X connect 26 0 7 0;
#X connect 27 0 28 0;
#X connect 28 0 29 0;
#X connect 28 1 30 0;
#X connect 28 2 31 0;
#X connect 28 3 32 0;
#X connect 28 4 33 0;
#X connect 28 5 34 0;
#X connect 29 0 35 0;
#X connect 30 0 35 0;
#X connect 31 0 35 0;
#X connect 32 0 35 0;
#X connect 33 0 35 0;
#X connect 34 0 35 0;
#X connect 35 0 4 0;
