#N canvas 639 317 337 426 12;
#X obj 41 196 noise~;
#X obj 100 191 line~;
#X obj 82 232 *~;
#X obj 82 294 outlet~;
#X msg 61 142 1 \, 0 \$1;
#X obj 82 265 bp~ 5000 100;
#X obj 59 34 inlet;
#X obj 124 33 inlet;
#X obj 183 33 inlet;
#X connect 0 0 2 0;
#X connect 1 0 2 1;
#X connect 2 0 5 0;
#X connect 4 0 1 0;
#X connect 5 0 3 0;
#X connect 6 0 4 0;
#X connect 7 0 5 1;
#X connect 8 0 5 2;
