#N canvas 323 38 608 546 12;
#X obj 275 25 bng 35 250 50 0 empty empty empty 17 7 0 10 #fcfcfc #000000
#000000;
#X obj 270 127 bng 15 250 50 0 empty empty empty 17 7 0 10 #fcfcfc
#000000 #000000;
#X obj 317 127 bng 15 250 50 0 empty empty empty 17 7 0 10 #fcfcfc
#000000 #000000;
#X obj 237 159 delay 500;
#X obj 270 84 flip 50;
#X obj 315 160 delay 750;
#X obj 237 197 flip 25;
#X obj 235 248 bng 15 250 50 0 empty empty empty 17 7 0 10 #fcfcfc
#000000 #000000;
#X obj 279 246 bng 15 250 50 0 empty empty empty 17 7 0 10 #fcfcfc
#000000 #000000;
#X obj 320 248 bng 15 250 50 0 empty empty empty 17 7 0 10 #fcfcfc
#000000 #000000;
#X obj 358 247 bng 15 250 50 0 empty empty empty 17 7 0 10 #fcfcfc
#000000 #000000;
#X obj 315 197 flip 50;
#X obj 191 280 delay 250;
#X obj 342 279 delay 1000;
#X obj 280 279 flip 75;
#X obj 246 324 delay 500;
#X obj 326 325 delay 2000;
#X obj 239 361 bng 15 250 50 0 empty empty empty 17 7 0 10 #fcfcfc
#000000 #000000;
#X obj 324 357 bng 15 250 50 0 empty empty empty 17 7 0 10 #fcfcfc
#000000 #000000;
#X obj 277 499 noteout;
#X obj 249 460 makenote 100 100;
#X msg 214 404 30;
#X msg 251 404 35;
#X msg 288 404 40;
#X msg 326 404 45;
#X msg 366 405 50;
#X msg 404 404 55;
#X msg 445 404 60;
#X msg 176 404 25;
#X obj 89 49 bng 15 250 50 0 empty empty empty 17 7 0 10 #fcfcfc #000000
#000000;
#X obj 88 125 bng 15 250 50 0 empty empty empty 17 7 0 10 #fcfcfc #000000
#000000;
#X connect 0 0 4 0;
#X connect 1 0 3 0;
#X connect 1 0 28 0;
#X connect 2 0 5 0;
#X connect 2 0 27 0;
#X connect 3 0 6 0;
#X connect 4 0 1 0;
#X connect 4 1 2 0;
#X connect 5 0 11 0;
#X connect 6 0 5 0;
#X connect 6 0 7 0;
#X connect 6 1 8 0;
#X connect 7 0 12 0;
#X connect 7 0 23 0;
#X connect 8 0 14 0;
#X connect 8 0 24 0;
#X connect 9 0 13 0;
#X connect 9 0 25 0;
#X connect 10 0 0 0;
#X connect 10 0 26 0;
#X connect 11 0 3 0;
#X connect 11 0 9 0;
#X connect 11 1 10 0;
#X connect 12 0 0 0;
#X connect 13 0 0 0;
#X connect 14 0 15 0;
#X connect 14 1 16 0;
#X connect 15 0 17 0;
#X connect 16 0 18 0;
#X connect 18 0 0 0;
#X connect 18 0 22 0;
#X connect 20 0 19 0;
#X connect 20 1 19 1;
#X connect 21 0 20 0;
#X connect 22 0 20 0;
#X connect 23 0 20 0;
#X connect 24 0 20 0;
#X connect 25 0 20 0;
#X connect 26 0 20 0;
#X connect 27 0 20 0;
#X connect 28 0 20 0;
#X connect 29 0 30 0;
