#N canvas 218 367 375 443 12;
#X obj 61 61 inlet;
#X obj 61 94 bng 15 250 50 0 empty empty empty 17 7 0 10 #fcfcfc #000000
#000000;
#X obj 61 122 random 100;
#X floatatom 61 155 5 0 0 0 - - - 0;
#X obj 61 222 sel 0 1;
#X obj 61 272 outlet;
#X obj 116 273 outlet;
#X obj 61 188 > \$1;
#X connect 0 0 1 0;
#X connect 1 0 2 0;
#X connect 2 0 3 0;
#X connect 3 0 7 0;
#X connect 4 0 5 0;
#X connect 4 1 6 0;
#X connect 7 0 4 0;
