#N canvas 974 38 479 727 12;
#X obj 28 295 soundfiler;
#X listbox 144 328 17 0 0 0 - - - 0;
#X floatatom 28 328 15 0 0 0 - - - 0;
#X obj 40 468 bng 15 250 50 0 empty empty empty 17 7 0 10 #fcfcfc #000000
#000000;
#X obj 157 534 bng 15 250 50 0 empty empty empty 17 7 0 10 #fcfcfc
#000000 #000000;
#X text 22 13 store the sample;
#X text 19 124 open the sample;
#X text 33 443 loop the sample;
#X obj 24 150 bng 15 250 50 0 empty empty empty 17 7 0 10 #fcfcfc #000000
#000000;
#X obj 26 210 + 1;
#X text 26 352 sample length;
#X text 148 350 sample details;
#X obj 115 282 print opening sample;
#X obj 25 177 random 4;
#X obj 240 412 vsl 30 128 0 1 0 0 empty empty empty 0 -9 0 10 #fcfcfc
#000000 #000000 0 1;
#X floatatom 241 561 5 0 0 0 - - - 0;
#X obj 43 595 *~;
#X obj 241 591 sel 0;
#X obj 241 620 bng 15 250 50 0 empty empty empty 17 7 0 10 #fcfcfc
#000000 #000000;
#X obj 25 39 array define \$1;
#X obj 41 497 tabplay~ \$1;
#X obj 23 95 loadbang;
#X obj 32 409 loadbang;
#X obj 238 34 inlet;
#X obj 45 657 outlet~;
#X obj 168 121 symbol \$1;
#X obj 177 177 print;
#X obj 77 220 pack f s;
#X msg 31 255 read -resize samples/0\$1.wav \$2;
#X obj 45 628 *~ 0.5;
#X connect 0 0 2 0;
#X connect 0 1 1 0;
#X connect 3 0 20 0;
#X connect 4 0 3 0;
#X connect 8 0 13 0;
#X connect 8 0 25 0;
#X connect 9 0 27 0;
#X connect 13 0 9 0;
#X connect 14 0 15 0;
#X connect 15 0 16 1;
#X connect 15 0 17 0;
#X connect 16 0 29 0;
#X connect 17 0 18 0;
#X connect 18 0 8 0;
#X connect 20 0 16 0;
#X connect 20 1 4 0;
#X connect 21 0 8 0;
#X connect 22 0 3 0;
#X connect 23 0 14 0;
#X connect 25 0 26 0;
#X connect 25 0 27 1;
#X connect 27 0 28 0;
#X connect 28 0 0 0;
#X connect 28 0 12 0;
#X connect 29 0 24 0;
